<?xml version="1.0" standalone="no"?>
<svg xmlns="http://www.w3.org/2000/svg" xmlns:xlink="http://www.w3.org/1999/xlink" style="isolation:isolate" viewBox="0 0 343 89" width="343" height="89">
  <defs>
    <clipPath id="_clipPath_5UzqnGnkCCdWCqNZwX1SGmqjfw80bsLW">
      <rect width="343" height="89"/>
    </clipPath>
  </defs>

  <g clip-path="url(#_clipPath_5UzqnGnkCCdWCqNZwX1SGmqjfw80bsLW)">
    <path d=" M 237 34 L 249 34 Q 248.817 62.006 249 67 C 249.114 70.102 251.188 77 259 77 C 266.813 77 271 71.433 271 67 Q 271 62.117 271 34 L 284 34 Q 284 56.619 284 69 C 284 81.381 273.932 89 259 89 C 244.068 89 237 80.68 237 69 Q 237 57.32 237 34 Z " fill="rgb(74,144,226)"/>
    <path d=" M 300 79 L 307 71 Q 326.848 82.646 330 76 C 333.152 69.354 323.181 66.112 318 65 C 312.819 63.888 302.041 59.68 302 50 C 301.959 40.32 309.618 33 321 33 Q 332.382 33 340 40 L 335 48 Q 317.363 38.396 314 46 C 310.637 53.604 323.111 55.395 328 57 C 337.564 60.139 341.952 64.824 342 72 C 342.048 79.176 334.991 89.043 323 89 Q 311.009 88.957 300 79 Z " fill="rgb(74,144,226)"/>
    <path d=" M 0 28 Q 0.552 28 10 28 C 10 25.183 12.179 19 18 19 C 23.821 19 27 24.897 27 28 L 38 28 C 38 21.306 41.231 11 53 11 C 64.769 11 69 22.036 69 27 L 80 27 C 80 16.517 68.097 0 53 0 C 37.903 0 30 11.202 30 14 C 30 12.235 23.051 9 18 9 C 10.716 9 0 14.979 0 28 Z " fill="rgb(74,144,226)"/>
    <path d=" M 0 89 L 12 89 L 12 56 L 38 89 L 48 89 L 48 35 L 36 35 L 36 68 L 11 35 L 0 35 L 0 89 Z " fill="rgb(74,144,226)"/>
    <path d=" M 68 89 L 81 89 L 81 35 L 68 35 L 68 89 Z " fill="rgb(74,144,226)"/>
    <path d=" M 101 89 L 113 89 L 113 55 L 128 76 L 143 54 L 143 89 L 155 89 L 155 34 L 142 34 L 128 57 L 114 35 L 101 35 L 101 89 Z " fill="rgb(74,144,226)"/>
    <path d=" M 187 56 L 187 45 Q 197.378 45 201 45 C 204.622 45 206 47.688 206 50 C 206 52.312 204.89 56 201 56 Q 197.11 56 187 56 L 187 56 L 187 56 Z  M 176 89 L 175 34 Q 192.233 34 203 34 C 213.767 34 218 42.946 218 49 Q 218 55.054 211 60 Q 221 63.986 221 74 C 221 84.014 211.297 89 206 89 Q 200.703 89 176 89 L 176 89 L 176 89 Z  M 187 78 L 187 67 Q 198.697 67 204 67 C 208.324 67 209 69.643 209 73 C 209 76.357 207.842 78 204 78 Q 200.158 78 187 78 Z " fill-rule="evenodd" fill="rgb(74,144,226)"/>
  </g>
</svg>
